HIERARCHY
ROOT root
{
	OFFSET	0	13.1	24.9
	CHANNELS 6  Xposition Yposition Zposition Xrotation Yrotation Zrotation
	JOINT spine_1
	{
		OFFSET	0	9.99999	0
		CHANNELS 3  Xrotation Yrotation Zrotation
		JOINT spine_2
		{
			OFFSET	0	112	-10
			CHANNELS 3  Xrotation Yrotation Zrotation
			JOINT spine_3
			{
				OFFSET	0	206.5	19.3
				CHANNELS 3  Xrotation Yrotation Zrotation
				JOINT spine_4
				{
					OFFSET	0	110.4	14.6
					CHANNELS 3  Xrotation Yrotation Zrotation
					JOINT neck_1
					{
						OFFSET	0	71.8	-50.3
						CHANNELS 3  Xrotation Yrotation Zrotation
						JOINT neck_2
						{
							OFFSET	0	86.2	-25.8
							CHANNELS 3  Xrotation Yrotation Zrotation
							JOINT head_ee
							{
								OFFSET	0	179.8	-8.7
								CHANNELS 3  Xrotation Yrotation Zrotation
								End Site
								{
									OFFSET	1	0	0
								}
							}
						}
					}
					JOINT left_clavicle
					{
						OFFSET	-43.2	22.4	-70.8
						CHANNELS 3  Xrotation Yrotation Zrotation
						JOINT left_shoulder
						{
							OFFSET	-93.9	-5.79999	48.7
							CHANNELS 3  Xrotation Yrotation Zrotation
							JOINT left_elbow
							{
								OFFSET	-291.4	-30.8	15.2
								CHANNELS 3  Xrotation Yrotation Zrotation
								JOINT left_lowarm_twist
								{
									OFFSET	-110.7	-3.89999	13.6
									CHANNELS 3  Xrotation Yrotation Zrotation
									JOINT left_hand
									{
										OFFSET	-110.7	-3.89999	13.6
										CHANNELS 3  Xrotation Yrotation Zrotation
										JOINT left_ee
										{
											OFFSET	-80.8	-5.10001	12.1
											CHANNELS 3  Xrotation Yrotation Zrotation
											End Site
											{
												OFFSET	1	0	0
											}
										}
									}
								}
							}
						}
					}
					JOINT right_clavicle
					{
						OFFSET	43.2	22.4	-70.8
						CHANNELS 3  Xrotation Yrotation Zrotation
						JOINT right_shoulder
						{
							OFFSET	93.9	-5.79999	48.7
							CHANNELS 3  Xrotation Yrotation Zrotation
							JOINT right_elbow
							{
								OFFSET	291.4	-30.8	15.2
								CHANNELS 3  Xrotation Yrotation Zrotation
								JOINT right_lowarm_twist
								{
									OFFSET	110.7	-3.89999	13.6
									CHANNELS 3  Xrotation Yrotation Zrotation
									JOINT right_hand
									{
										OFFSET	110.7	-3.89999	13.6
										CHANNELS 3  Xrotation Yrotation Zrotation
										JOINT right_ee
										{
											OFFSET	80.8	-5.10001	12.1
											CHANNELS 3  Xrotation Yrotation Zrotation
											End Site
											{
												OFFSET	1	0	0
											}
										}
									}
								}
							}
						}
					}
				}
			}
		}
	}
	JOINT left_hip
	{
		OFFSET	-82.8	-127.5	0.300001
		CHANNELS 3  Xrotation Yrotation Zrotation
		JOINT left_knee
		{
			OFFSET	-28.2	-396.7	2.2
			CHANNELS 3  Xrotation Yrotation Zrotation
			JOINT left_ankle
			{
				OFFSET	-11.7	-411.3	35.4
				CHANNELS 3  Xrotation Yrotation Zrotation
				JOINT left_toes
				{
					OFFSET	0	-60	-88.6
					CHANNELS 3  Xrotation Yrotation Zrotation
					JOINT left_foot_ee
					{
						OFFSET	-22.5	-16.5	-42.2
						CHANNELS 3  Xrotation Yrotation Zrotation
						End Site
						{
							OFFSET	1	0	0
						}
					}
				}
			}
		}
	}
	JOINT right_hip
	{
		OFFSET	82.8	-127.5	0.300001
		CHANNELS 3  Xrotation Yrotation Zrotation
		JOINT right_knee
		{
			OFFSET	28.2	-396.7	2.2
			CHANNELS 3  Xrotation Yrotation Zrotation
			JOINT right_ankle
			{
				OFFSET	11.7	-411.3	35.4
				CHANNELS 3  Xrotation Yrotation Zrotation
				JOINT right_toes
				{
					OFFSET	0	-60	-88.6
					CHANNELS 3  Xrotation Yrotation Zrotation
					JOINT right_foot_ee
					{
						OFFSET	22.5	-16.5	-42.2
						CHANNELS 3  Xrotation Yrotation Zrotation
						End Site
						{
							OFFSET	1	0	0
						}
					}
				}
			}
		}
	}
}
MOTION
Frames: 5
Frame Time: 0.02
532.197 730.594 -533.771 168.125 -66.9405 170.344 -1.79335 0.636286 3.24661 -1.78759 0.428521 3.28047 -1.75684 -0.371653 3.28739 -1.77188 0.1519 3.30482 -23.3838 14.0169 -7.39576 -25.1348 30.2837 0.422987 -0.0 0.0 -0.0 -2.54632 23.8239 -0.705203 -6.29196 -0.536996 67.9205 1.01381 -26.6658 0.240275 -68.7123 -6.3818 5.28884 -0.266178 9.99412 2.43255 -0.0 0.0 -0.0 13.636 26.8608 -27.0456 21.2648 -26.3974 -68.9122 0.608524 16.7753 -0.0897257 69.0035 2.63763 7.87266 -2.41002 -26.6473 2.85478 0.0 0.0 0.0 4.60984 19.9073 -14.5555 4.91806 -0.233539 -0.718176 12.4073 -2.70873 -1.77773 -11.7704 0.0 0.0 -0.0 0.0 -0.0 4.06163 43.5384 -14.3999 -25.7605 -0.182966 -3.91577 39.61 -8.42455 4.83239 -14.7341 0.0 0.0 0.0 0.0 0.0 
551.491 731.193 -532.837 163.764 -66.0297 165.696 -1.98552 0.91879 3.29345 -1.97977 0.707478 3.34516 -1.93116 -0.12633 3.41674 -1.94721 0.414548 3.39388 -25.0151 13.4102 -7.62666 -26.7587 28.9818 0.254087 -0.0 0.0 -0.0 -2.54014 24.5049 -0.571073 -7.44517 -0.402484 67.9793 0.841889 -22.6383 0.168521 -68.6709 -6.37652 5.28835 -0.654486 8.99592 -0.482826 -0.0 0.0 -0.0 13.5725 26.2307 -26.9767 20.3281 -23.5732 -70.8075 0.683591 18.7078 -0.112604 70.062 2.7468 7.95344 -1.68308 -26.657 -1.16175 0.0 0.0 0.0 7.39747 19.1825 -15.7793 -1.8188 0.0706041 0.270182 12.8533 -1.30426 -1.83069 -11.4472 0.0 0.0 -0.0 0.0 -0.0 -2.05065 44.0501 -12.0393 -24.5787 -0.213261 -3.73694 37.6052 -9.48479 4.65693 -17.4264 0.0 0.0 0.0 0.0 0.0 
564.685 733.791 -532.783 161.049 -66.0086 162.872 -2.04918 1.01822 3.18195 -2.04392 0.813793 3.24021 -1.99072 -0.000981066 3.34074 -2.0059 0.526347 3.29906 -25.3007 12.7272 -8.9377 -26.8926 28.1746 -1.32435 -0.0 0.0 -0.0 -2.46559 24.6778 -0.439547 -8.29017 -0.350802 68.3269 0.691814 -18.9169 0.115255 -68.6334 -6.37175 5.2879 -0.570436 9.20146 0.146026 -0.0 0.0 -0.0 13.3223 25.8929 -26.4361 20.0059 -21.4786 -71.6617 0.741903 20.1792 -0.132016 71.0518 2.85023 8.02716 -1.15877 -26.7026 -4.07757 0.0 0.0 0.0 9.18942 18.2225 -16.6664 -8.39861 0.253612 1.26283 12.8909 -1.15844 -1.83505 -11.703 0.0 0.0 -0.0 0.0 -0.0 -6.22857 45.2397 -10.5791 -21.8243 -0.269503 -3.31806 37.3863 -8.39633 4.63103 -19.1174 0.0 0.0 0.0 0.0 0.0 
575.856 734.819 -536.409 159.179 -65.9862 160.738 -2.14768 1.04533 3.15702 -2.14253 0.84243 3.21705 -2.08793 0.0268434 3.3253 -2.10294 0.55139 3.27943 -26.4242 12.2234 -9.68889 -27.9617 27.3044 -2.10254 -0.0 0.0 -0.0 -2.42285 24.402 -0.432393 -9.37119 -0.408167 69.2021 0.534363 -14.8268 0.0695291 -68.8043 -6.39352 5.28992 -0.394377 9.77741 1.52027 -0.0 0.0 -0.0 13.1875 25.9215 -26.1202 20.1946 -19.9759 -71.8577 0.814162 21.9647 -0.157999 72.2913 2.98153 8.11694 -0.615907 -26.7842 -7.12104 0.0 0.0 0.0 10.8372 17.2101 -17.3058 -11.5515 0.300643 1.74428 10.85 -0.9585 -1.55588 -12.0075 0.0 0.0 -0.0 0.0 -0.0 -10.1082 46.149 -8.52643 -17.0446 -0.319115 -2.58656 37.6118 -8.27375 4.65137 -20.2734 0.0 0.0 0.0 0.0 0.0 
582.796 733.404 -539.761 157.84 -66.0718 159.368 -2.18069 1.0397 3.04617 -2.17593 0.843852 3.10607 -2.12328 0.0534944 3.21811 -2.13729 0.560805 3.16937 -27.6081 11.9467 -10.3234 -29.1414 26.7758 -2.64521 -0.0 0.0 -0.0 -2.35286 24.1844 -0.377274 -10.1229 -0.470188 70.0707 0.422676 -11.826 0.0437765 -68.8162 -6.39504 5.29006 -0.253114 10.3314 2.65582 -0.0 0.0 -0.0 13.121 26.1045 -25.9446 20.637 -18.6064 -71.6532 0.906246 24.1763 -0.19409 73.1333 3.07181 8.17631 -0.227516 -26.9966 -9.367 0.0 0.0 0.0 13.7767 15.9937 -18.3312 -13.9512 0.318647 2.112 9.39559 -1.06808 -1.3549 -12.2771 0.0 0.0 -0.0 0.0 -0.0 -13.1905 46.8253 -6.69278 -14.5599 -0.320764 -2.20538 38.0093 -7.64548 4.68545 -21.0708 0.0 0.0 0.0 0.0 0.0 
